# xmcd
#
# Track frame offsets: 
#        150
#        16303
#        30331
#        46802
#        65277
#        83788
#        107056
#        125937
#        140388
#        156289
#        175702
#        195010
#        212947
#        231696
#        247234
#
# Disc length: 3477 seconds
#
# Revision: 7
# Processed by: cddbd v1.5.2PL0 Copyright (c) Steve Scherf et al.
# Submitted via: ExactAudioCopyFreeDBPlugin 1.0
#
DISCID=cd0d930f
DTITLE=PinoDaniele - Ricomincio Da 30 - CD3
DYEAR=2008
DGENRE=Blues
TTITLE0=Yes I Know My Way
TTITLE1=A Me Me Piace 'O Blues
TTITLE2=Ànema E Còre
TTITLE3='O Scarrafone
TTITLE4=Che Male C'è
TTITLE5=Pigro (Special Guest Peter Erskine Trio)
TTITLE6=Vento Di Passione (Special Guest Giorgia)
TTITLE7=Che Soffisfazione (Special Guest Mick Goodrick)
TTITLE8=Io Per Lei
TTITLE9=Che Dio Ti Benedica
TTITLE10=The Desert In My Head (Special Guest Noa)
TTITLE11=Io Vivo Come Te (Special Guest Wayne Shorter)
TTITLE12=Tutta 'Nata Storia
TTITLE13=Vento 'E Terra
TTITLE14=Toledo (Special Guest Wayne Shorter)
EXTD=YEAR: 2008
EXTT0=
EXTT1=
EXTT2=
EXTT3=
EXTT4=
EXTT5=
EXTT6=
EXTT7=
EXTT8=
EXTT9=
EXTT10=
EXTT11=
EXTT12=
EXTT13=
EXTT14=
PLAYORDER=
